<svg data-name="Layer 1" xmlns="http://www.w3.org/2000/svg" xmlns:xlink="http://www.w3.org/1999/xlink" width="842" height="778.92" viewBox="0 0 842 778.92"><defs><linearGradient id="a" x1="378.37" y1="732.81" x2="378.37" y2="130.21" gradientUnits="userSpaceOnUse"><stop offset="0" stop-color="gray" stop-opacity=".25"/><stop offset=".54" stop-color="gray" stop-opacity=".12"/><stop offset="1" stop-color="gray" stop-opacity=".1"/></linearGradient><linearGradient id="c" x1="274.44" y1="409.32" x2="274.44" y2="248.16" xlink:href="#a"/><linearGradient id="d" x1="274.44" y1="361.44" x2="274.44" y2="261.01" xlink:href="#a"/><clipPath id="e" transform="translate(-179 -60.54)"><path data-name="&lt;Rectangle&gt;" fill="#fff" d="M381.54 322.72h143.79v96.93H381.54z"/></clipPath><linearGradient id="f" x1="274.44" y1="616.03" x2="274.44" y2="454.87" xlink:href="#a"/><linearGradient id="g" x1="274.44" y1="568.15" x2="274.44" y2="467.72" xlink:href="#a"/><clipPath id="h" transform="translate(-179 -60.54)"><path data-name="&lt;Rectangle&gt;" fill="#fff" d="M381.54 529.42h143.79v96.93H381.54z"/></clipPath><linearGradient id="i" x1="688.76" y1="765.86" x2="688.76" y2="163.26" gradientTransform="rotate(90 665.375 476.845)" xlink:href="#a"/><linearGradient id="j" x1="688.18" y1="568.49" x2="688.18" y2="409.67" gradientTransform="rotate(90 662.7 498.69)" xlink:href="#a"/><linearGradient id="k" x1="810.6" y1="767.54" x2="810.6" y2="362.71" gradientUnits="userSpaceOnUse"><stop offset="0" stop-color="#b3b3b3" stop-opacity=".25"/><stop offset=".54" stop-color="#b3b3b3" stop-opacity=".1"/><stop offset="1" stop-color="#b3b3b3" stop-opacity=".05"/></linearGradient><linearGradient id="b" x1="685.49" y1="507.08" x2="685.49" y2="487.6" gradientUnits="userSpaceOnUse"><stop offset="0" stop-opacity=".12"/><stop offset=".55" stop-opacity=".09"/><stop offset="1" stop-opacity=".02"/></linearGradient><linearGradient id="l" x1="774.99" y1="484.73" x2="774.99" y2="425.15" xlink:href="#b"/></defs><title>file searching</title><path fill="url(#a)" d="M154.15 130.21h448.44v602.6H154.15z" opacity=".5"/><path fill="#f2f2f2" d="M159.99 138.39h434.43v581.58H159.99z"/><path fill="#e0e0e0" d="M193.86 162.91h149.48v4.67H193.86z"/><path fill="#727cf5" opacity=".7" d="M193.86 183.93h149.48v4.67H193.86z"/><path fill="#e0e0e0" d="M365.53 162.91h149.48v4.67H365.53zm23.35 133.14h149.48v4.67H388.88zm3.51 12.84h149.48v4.67H392.39zm7.01 12.85h149.48v4.67H399.4zm-10.52 181.01h149.48v4.67H388.88zm3.51 12.85h149.48v4.67H392.39zm7.01 12.84h149.48v4.67H399.4z"/><path fill="url(#c)" d="M195.03 248.16h158.82v161.16H195.03z" opacity=".5"/><path fill="#f5f5f5" d="M196.03 251.67h156.32v154.15H196.03z"/><path fill="url(#d)" d="M201.54 261.01h145.8v100.43h-145.8z" opacity=".5"/><path data-name="&lt;Rectangle&gt;" fill="#fff" d="M202.54 262.18h143.79v96.93H202.54z"/><g clip-path="url(#e)" fill="#727cf5"><path opacity=".4" d="M190.35 355.61l36.21-56.06 15.18 24.52 32.7-33.86 28.03 33.86 24.52-50.21 63.06 100.43-204.37-7.01 4.67-11.67z"/><circle cx="218.38" cy="276.19" r="10.51" opacity=".4"/></g><path fill="url(#f)" d="M195.03 454.87h158.82v161.16H195.03z" opacity=".5"/><path fill="#f5f5f5" d="M196.03 458.37h156.32v154.15H196.03z"/><path fill="url(#g)" d="M201.54 467.72h145.8v100.43h-145.8z" opacity=".5"/><path data-name="&lt;Rectangle&gt;" fill="#fff" d="M202.54 468.88h143.79v96.93H202.54z"/><g clip-path="url(#h)" fill="#bdbdbd"><path opacity=".4" d="M190.35 562.31l36.21-56.06 15.18 24.53 32.7-33.87 28.03 33.87 24.52-50.22 63.06 100.43-204.37-7 4.67-11.68z"/><circle cx="218.38" cy="482.9" r="10.51" opacity=".4"/></g><path transform="rotate(-78.76 551.253 578.999)" fill="url(#i)" d="M376.36 276.01h602.6v448.44h-602.6z" opacity=".5"/><path fill="#fff" d="M228.214 680.02l113.361-570.425 426.097 84.679-113.36 570.425z"/><path fill="#e0e0e0" d="M367.32 142.077l302.395 60.096-.91 4.58-302.396-60.095zm-86.044 432.981l302.396 60.095-.91 4.58-302.397-60.095zm-5.246 26.335L509.7 647.83l-.91 4.58-233.67-46.437z"/><path fill="#727cf5" opacity=".7" d="M270.797 627.746l87.048 17.3-.91 4.58-87.048-17.3zm91.278-459.319l151.193 30.047-.91 4.58-151.194-30.046z"/><path fill="#e0e0e0" d="M356.851 194.77l272.609 54.175-.91 4.58-272.61-54.175z"/><path fill="#3ad29f" opacity=".7" d="M351.61 221.12l66.431 13.201-.91 4.58-66.43-13.201z"/><path fill="#e0e0e0" d="M346.38 247.464l302.397 60.096-.91 4.58-302.397-60.095z"/><path transform="rotate(-78.76 545.898 602.937)" fill="url(#j)" d="M592.89 385.78h158.82v276.77H592.89z" opacity=".5"/><path fill="#fff" d="M374.561 360.23l268.029 53.266-30.275 152.34-268.029-53.265z"/><path fill="#e0e0e0" d="M341.145 273.818l302.396 60.095-.91 4.58-302.397-60.095z"/><path fill="#727cf5" d="M398.533 386.426l33.22 6.601-22.08 111.108-33.22-6.602z"/><path fill="#3ad29f" d="M450.809 434.918l33.22 6.602-14.796 74.454-33.22-6.602z"/><path fill="#f55f44" d="M503.55 481.12l33.22 6.602-7.966 40.086-33.22-6.601z"/><path fill="#fdd835" d="M571.308 451.72l33.22 6.603-16.162 81.33-33.22-6.603z"/><path d="M880.45 410.55a155.89 155.89 0 0 0-223.11-1.68c-59 59.48-60 156.33-2.29 217.07A155.89 155.89 0 0 0 854.95 648l112.69 117.21a7.59 7.59 0 0 0 10.73.21l28.08-27a7.59 7.59 0 0 0 .21-10.73L894 610.49a155.9 155.9 0 0 0-13.55-199.94zM845.35 599a111.5 111.5 0 1 1 3.1-157.66 111.5 111.5 0 0 1-3.1 157.66z" transform="translate(-179 -60.54)" fill="url(#k)"/><path d="M685.49 487.6c-12.54 0-12.56 19.49 0 19.49s12.56-19.49 0-19.49z" transform="translate(-179 -60.54)" fill="url(#b)"/><path d="M772.9 425.17c-33.75-.76-64.46 16.17-80.79 41.73-5.33 8.34 9.8 15.71 15.1 7.41 13.52-21.16 39.21-34.6 67-33.9 29.12.73 55.62 17.39 69.65 40.51 5.32 8.77 19.27.8 14-7.92-17.06-28-50.1-47-84.96-47.83z" transform="translate(-179 -60.54)" fill="url(#l)"/><path d="M713.68 344.09a155.89 155.89 0 0 0-223.11-1.68c-59 59.48-60 156.33-2.29 217.07a155.89 155.89 0 0 0 199.9 22.05l112.68 117.22a7.59 7.59 0 0 0 10.73.21l28.08-27a7.59 7.59 0 0 0 .21-10.73L727.19 544.02a155.9 155.9 0 0 0-13.51-199.93zm-35.1 188.37a111.5 111.5 0 1 1 3.1-157.66 111.5 111.5 0 0 1-3.1 157.66z" fill="#727cf5"/><path d="M518.72 421.13c-12.54 0-12.56 19.49 0 19.49s12.56-19.49 0-19.49zm87.41-62.42c-33.75-.76-64.46 16.17-80.79 41.73-5.33 8.34 9.8 15.71 15.1 7.41 13.52-21.16 39.21-34.6 67-33.9 29.12.73 55.62 17.39 69.65 40.51 5.32 8.77 19.27.8 14-7.92-17.09-28.08-50.09-47.08-84.96-47.83z" fill="#727cf5"/><path fill="#47e6b1" d="M121.45 663.91h3.5v19.85h-3.5z"/><path fill="#47e6b1" d="M133.13 672.08v3.5h-19.85v-3.5z"/><path d="M571.87 7.95a4.29 4.29 0 0 1-2.39-5.19 2.06 2.06 0 0 0 .09-.48A2.15 2.15 0 0 0 565.7.85a2.06 2.06 0 0 0-.24.42 4.29 4.29 0 0 1-5.19 2.39 2.06 2.06 0 0 0-.48-.09 2.15 2.15 0 0 0-1.41 3.89 2.06 2.06 0 0 0 .42.24 4.29 4.29 0 0 1 2.39 5.19 2.06 2.06 0 0 0-.09.48 2.15 2.15 0 0 0 3.9 1.41 2.06 2.06 0 0 0 .24-.42 4.29 4.29 0 0 1 5.19-2.39 2.06 2.06 0 0 0 .48.09 2.15 2.15 0 0 0 1.43-3.87 2.06 2.06 0 0 0-.47-.24z" fill="#4d8af0"/><path d="M137.44 155.1a4.29 4.29 0 0 1-2.39-5.19 2.06 2.06 0 0 0 .09-.48 2.15 2.15 0 0 0-3.87-1.43 2.06 2.06 0 0 0-.24.42 4.29 4.29 0 0 1-5.19 2.39 2.06 2.06 0 0 0-.48-.09 2.15 2.15 0 0 0-1.43 3.87 2.06 2.06 0 0 0 .42.24 4.29 4.29 0 0 1 2.39 5.19 2.06 2.06 0 0 0-.09.48 2.15 2.15 0 0 0 3.87 1.43 2.06 2.06 0 0 0 .24-.42 4.29 4.29 0 0 1 5.19-2.39 2.06 2.06 0 0 0 .48.09 2.15 2.15 0 0 0 1.43-3.87 2.06 2.06 0 0 0-.42-.24zm617.78 607.26a4.29 4.29 0 0 1-2.39-5.19 2.06 2.06 0 0 0 .09-.48 2.15 2.15 0 0 0-3.87-1.43 2.06 2.06 0 0 0-.24.42 4.29 4.29 0 0 1-5.19 2.39 2.06 2.06 0 0 0-.48-.09 2.15 2.15 0 0 0-1.43 3.87 2.06 2.06 0 0 0 .42.24 4.29 4.29 0 0 1 2.39 5.19 2.06 2.06 0 0 0-.09.48 2.15 2.15 0 0 0 3.87 1.43 2.06 2.06 0 0 0 .24-.42 4.29 4.29 0 0 1 5.19-2.39 2.06 2.06 0 0 0 .48.09 2.15 2.15 0 0 0 1.43-3.87 2.06 2.06 0 0 0-.42-.24z" fill="#fdd835"/><circle cx="321.15" cy="75.33" r="7.01" fill="#f55f44"/><circle cx="823.31" cy="162.91" r="7.01" fill="#f55f44"/><circle cx="783.61" cy="371.95" r="7.01" fill="#4d8af0"/><circle cx="7.01" cy="28.61" r="7.01" fill="#47e6b1" opacity=".5"/></svg>