<svg data-name="Layer 1" xmlns="http://www.w3.org/2000/svg" width="737.61" height="734.73" viewBox="0 0 737.61 734.73"><defs><linearGradient id="a" x1="600" y1="817.36" x2="600" y2="82.64" gradientUnits="userSpaceOnUse"><stop offset="0" stop-color="gray" stop-opacity=".25"/><stop offset=".54" stop-color="gray" stop-opacity=".12"/><stop offset="1" stop-color="gray" stop-opacity=".1"/></linearGradient><linearGradient id="b" x1="640.68" y1="541.38" x2="640.68" y2="111.38" gradientTransform="rotate(.13 36889.153 -101490.725)" gradientUnits="userSpaceOnUse"><stop offset="0" stop-opacity=".12"/><stop offset=".55" stop-opacity=".09"/><stop offset="1" stop-opacity=".02"/></linearGradient></defs><title>mail</title><path d="M968.8 384.4c.06-27.46-5.63-34.67-18-45.11L617.08 88.13A27.22 27.22 0 0 0 584.4 88L256.58 332.11c-12.44 10.38-24.09 22.48-24.15 49.94h-.36l-.84 376v16.74a41 41 0 0 0 40.92 41.1h16.16l310.85.69 327 .73a41 41 0 0 0 41.1-40.92l.87-392.05z" transform="translate(-231.2 -82.64)" fill="url(#a)"/><path d="M7.017 301.158l722.998 1.64-.794 350a71.78 71.78 0 0 1-71.923 71.607L76.53 723.087a70.47 70.47 0 0 1-70.31-70.63l.797-351.299z" fill="#727cf5"/><path d="M7.03 301.14l-.81 365.62a56.16 56.16 0 0 0 56 56.28l610.76 1.32" fill="#f5f5f5"/><path d="M730.07 302.75l-.81 365.61a56.16 56.16 0 0 1-56.28 56L62.25 723" fill="#fff"/><path d="M353.13 15.27l-322 237.32c-12.22 10.09-23.66 21.86-23.72 48.56l723.39 2.29c.06-26.7-5.53-33.71-17.7-43.86L385.23 15.36a27 27 0 0 0-32.1-.09z" fill="#727cf5"/><path d="M353.13 15.27l-322 237.32c-12.22 10.09-23.66 21.86-23.72 48.56l723.39 2.29c.06-26.7-5.53-33.71-17.7-43.86L385.23 15.36a27 27 0 0 0-32.1-.09z" opacity=".3"/><path fill="url(#b)" d="M651.79 97.86L564.3 29.19 352.78 297.12l-113.67-88.13-71.17 90.46 165.42 126.36 41.01 32.95 277.42-360.9z"/><path fill="#fff" d="M645.39 96.18l-79.33-60.83L355.92 309.4l-116.71-89.49-60.83 79.33 156.36 119.72 40.1 30.05L645.39 96.18z"/></svg>